<svg width="200" height="200" viewBox="0 0 24 24" fill="none" xmlns="http://www.w3.org/2000/svg">
    <!-- Background circle for visual pop, matching the dark theme of the website -->
    <rect x="0" y="0" width="24" height="24" rx="4" ry="4" fill="#0d0d0d"/>

    <!-- Main abstract 'S' shape, representing "Saabsa" and "Solutions" -->
    <!-- This shape is designed to be modern, clean, and resemble a tech-related abstract form. -->
    <!-- The gradient adds depth and matches the website's primary colors. -->
    <path d="M7 6C7 5.44772 7.44772 5 8 5H16C16.5523 5 17 5.44772 17 6V18C17 18.5523 16.5523 19 16 19H8C7.44772 19 7 18.5523 7 18V6Z" fill="url(#logoGradient)" stroke="#1de9b6" stroke-width="0.5"/>

    <!-- Inner shapes/lines to give the 'S' or abstract tech feel -->
    <path d="M9 7L9 17L11 17L11 7L9 7Z" fill="white" opacity="0.6"/>
    <path d="M13 7L13 17L15 17L15 7L13 7Z" fill="white" opacity="0.6"/>

    <!-- Gradient definition for the main shape -->
    <defs>
        <linearGradient id="logoGradient" x1="7" y1="5" x2="17" y2="19" gradientUnits="userSpaceOnUse">
            <stop stop-color="#1de9b6"/>
            <stop offset="1" stop-color="#00bfa6"/>
        </linearGradient>
    </defs>
</svg>
